<?xml version="1.0" encoding="UTF-8" standalone="no"?> <svg id="artwork" xmlns="http://www.w3.org/2000/svg" viewBox="0 0 512 512"><title>owl</title><g id="Owl"><path d="M249.14,187.49h-6.5v91.22a145.54,145.54,0,0,0,57.9,116.19c-95.41-8.82-170.37-89.3-170.37-187V111.88a74.69,74.69,0,0,1,5.88-29,81,81,0,0,0,10.73,10.7A50.75,50.75,0,0,0,136,124.65c-.17,28.31,23.69,51.47,52,51.47h5.12a7.63,7.63,0,0,0,.81,1L216,199.27a6.78,6.78,0,0,0,9.58,0l22.12-22.12a7,7,0,0,0,.81-1h4.58a52.24,52.24,0,0,0,37.35-15.34,51.15,51.15,0,0,0,4.12-66.9,80.39,80.39,0,0,0,11-11,74.65,74.65,0,0,1,5.84,29v67a6.5,6.5,0,0,0,6.5,6.5h0a6.5,6.5,0,0,0,6.5-6.5v-67A87.66,87.66,0,0,0,314.1,70.54,81.54,81.54,0,0,0,324.46,30.9V26.3a4.31,4.31,0,0,0-7-3.41L291.28,43.25a87.43,87.43,0,0,0-54.43-19H204.79a87.38,87.38,0,0,0-54.45,19l-26.2-20.38a4.32,4.32,0,0,0-7,3.41v4.46a81.36,81.36,0,0,0,10.41,39.71,87.54,87.54,0,0,0-10.41,41.41v96.05a200.45,200.45,0,0,0,75,156.36v34.12a21.51,21.51,0,0,0,15,20.46v16.94h-34.6L152.76,447a6.5,6.5,0,0,0-2.47,8.85h0a6.51,6.51,0,0,0,8.86,2.47l16.79-9.49h44.19V418.86a21.62,21.62,0,0,0,6.61-3.45,21.59,21.59,0,0,0,6.56,3.46v42.06H198.7l-19.78,11.16a6.5,6.5,0,0,0-2.46,8.86h0a6.49,6.49,0,0,0,8.86,2.46l16.79-9.48H246.3V418.87a21.54,21.54,0,0,0,14.86-18.35A197.77,197.77,0,0,0,290,406.75v5.82a52.57,52.57,0,0,0,52.57,52.57h1.13A52.56,52.56,0,0,0,388.33,490h6.5V333.18A145.69,145.69,0,0,0,249.14,187.49Zm-54.49-24.37h-6.86c-21.08,0-38.91-17.24-38.82-38.32A37.85,37.85,0,0,1,160.14,98c.2-.21.4-.4.65-.63.89-.85,1.81-1.66,2.77-2.41A33,33,0,0,0,189,148.88,32.57,32.57,0,0,0,200.14,147Zm-1.38-27.69a20.08,20.08,0,0,1-19.05-6.12,17.86,17.86,0,0,1-2.85-4.09,20,20,0,1,1,21.9,10.21Zm27.55,50.24L209.7,174.55l11.12-4.85,11.11,4.85Zm0-30.15-11.57,5,11.57-34.1,11.57,34.1ZM233,120.25a20,20,0,0,1,5.41-18.35,19.11,19.11,0,0,1,6.21-4.22,20.58,20.58,0,0,1,8-1.63A20,20,0,1,1,233,120.25Zm47.51,32.14a39.1,39.1,0,0,1-27.25,10.73H247l-5.4-15.91A33,33,0,0,0,278.73,96c.63.54,1.24,1.09,1.84,1.67a38.12,38.12,0,0,1-.09,54.76ZM309.93,45.23a68.78,68.78,0,0,1-24.56,39.38,50.63,50.63,0,0,0-15.52-8.27Zm-105.14-8h32.06a74.38,74.38,0,0,1,43.8,14.24L220.73,98,161,51.52A74.43,74.43,0,0,1,204.79,37.26Zm-33.24,39a50.79,50.79,0,0,0-15.48,8.08,68.72,68.72,0,0,1-24.32-39Zm41.62,330.63a8.71,8.71,0,0,1-8-8.8V374q6.41,4.37,13.17,8.25v16.21a21.42,21.42,0,0,0,.94,6.29A8.46,8.46,0,0,1,213.17,406.87Zm35.1-8.46a8.48,8.48,0,0,1-9.05,8.45,8.67,8.67,0,0,1-7.89-8.75V389q8.26,4,16.94,7.2ZM336,451.61a39.63,39.63,0,0,1-33.06-39v-4.41c4.95.36,9.95.56,15,.56h4.66q6.39,3.24,13.14,5.86v22.88a53.29,53.29,0,0,0,.27,5.39Zm45.8,24.88A39.65,39.65,0,0,1,349,442.05V419a144.94,144.94,0,0,0,32.8,5.24Zm0-66.67a134,134,0,0,1-88.64-91,6.48,6.48,0,0,0-7.69-4.52h0a6.53,6.53,0,0,0-4.79,8.15,145.73,145.73,0,0,0,52.89,77.14,132.88,132.88,0,0,1-77.95-120.86V200.64a133.84,133.84,0,0,1,19.67,2.44v60.18a6.5,6.5,0,0,0,6.5,6.5h0a6.5,6.5,0,0,0,6.5-6.5V206.4c54.1,16.75,93.52,67.24,93.52,126.78Z"/><path d="M275.47,289.89c.09,2,.23,4,.4,6a6.52,6.52,0,0,0,7.35,5.93h0a6.46,6.46,0,0,0,5.61-6.94q-.24-2.85-.38-5.72A6.48,6.48,0,0,0,282,283h0A6.52,6.52,0,0,0,275.47,289.89Z"/><path d="M242.9,103.16a5.37,5.37,0,1,0,6.71,3.56A5.38,5.38,0,0,0,242.9,103.16Z"/><path d="M195.59,103.16a5.37,5.37,0,1,0,6.7,3.56A5.37,5.37,0,0,0,195.59,103.16Z"/></g></svg>